<svg width="700px" height="700px" version="1.1" viewBox="0 0 660.886 700" xmlns="http://www.w3.org/2000/svg">
    <g transform="matrix(1.787825, 0, 0, 1.889734, -174.94902, -179.797104)" style="">
        <path stroke="#66c2a5" fill="#66c2a5" d="m172.24 461.45c2.9023 2.1641 6.4453 3.3477 10.074 3.3477h200.98c3.625 0 7.168-1.1797 10.074-3.3477 47.184-35.34 74.238-89.23 74.238-147.85 0-48.949-19.078-94.438-52.781-128.74 11.59-9.25 19.18-23.316 19.18-39.258 0-27.793-22.605-50.398-50.398-50.398l-201.6-0.003906c-27.793 0-50.398 22.605-50.398 50.398 0 15.941 7.5898 30.012 19.18 39.258-33.703 34.305-52.781 79.797-52.781 128.75 0 58.621 27.055 112.51 74.238 147.85zm9.7617-332.65h201.6c9.2695 0 16.801 7.5312 16.801 16.801 0 9.2695-7.5312 16.801-16.801 16.801h-0.3125l-200.98-0.003906h-0.3125c-9.2695 0-16.801-7.5312-16.801-16.801 0-9.2656 7.5312-16.797 16.801-16.797zm6.0703 67.199h189.46c13.934 11.207 25.473 24.5 34.473 39.211-23.312 5.8789-51.387 11.855-62.512 11.121-14.879-1.0234-45.328-16.832-66.691-16.832-21.242 0-52.121 15.832-66.691 16.832-11.133 0.92578-39.211-5.1445-62.531-11.09 9.0078-14.727 20.547-28.023 34.492-39.242zm-48.797 70.242c21.852 5.7188 60.641 14.914 79.168 13.629 19.523-1.3711 51.375-16.766 64.359-16.766 12.668 0 45.191 15.418 64.359 16.766 19.453 1.332 60.402-8.707 79.168-13.625 19.465 59.051 1.5078 124.49-48.797 164.95h-189.46c-50.344-40.492-68.242-105.98-48.797-164.96z"></path>
        <path stroke="#66c2a5" fill="#66c2a5" d="M 247.615 284.507 L 314.814 284.507 C 337.037 284.507 337.056 318.109 314.814 318.109 L 247.615 318.109 C 225.396 318.109 225.373 284.507 247.615 284.507 L 247.615 284.507 Z"></path>
        <path stroke="#66c2a5" fill="#66c2a5" d="M 331.615 368.508 L 230.815 368.508 C 208.592 368.508 208.573 334.906 230.815 334.906 L 331.615 334.906 C 353.838 334.91 353.857 368.508 331.615 368.508 Z"></path>
        <path stroke="#66c2a5" fill="#66c2a5" d="M 247.4 385.369 L 314.599 385.369 C 336.822 385.369 336.841 418.971 314.599 418.971 L 247.4 418.971 C 225.181 418.971 225.158 385.369 247.4 385.369 Z"></path>
    </g>
</svg>